<svg xmlns="http://www.w3.org/2000/svg" viewBox="0 0 240 380">
  <path d="M30 42L36 57L52 59L40 70L43 86L30 78L16 86L20 70L8 59L24 57Z" fill="#e8b747"/>
  <path d="M207 42L213 57L229 59L217 70L220 86L207 78L193 86L197 70L185 59L201 57Z" fill="#e8b747"/>
  <circle cx="116" cy="82" r="34" fill="#111"/>
  <path d="M90 125Q115 107 142 126L157 245Q119 267 76 243Z" fill="#111"/>
  <line x1="96" y1="143" x2="42" y2="62" stroke="#111" stroke-width="24" stroke-linecap="round"/>
  <line x1="138" y1="143" x2="194" y2="58" stroke="#111" stroke-width="24" stroke-linecap="round"/>
  <line x1="102" y1="239" x2="79" y2="346" stroke="#111" stroke-width="25" stroke-linecap="round"/>
  <line x1="132" y1="239" x2="160" y2="346" stroke="#111" stroke-width="25" stroke-linecap="round"/>
</svg>
